<?xml version="1.0" standalone="no"?>
<!DOCTYPE svg PUBLIC "-//W3C//DTD SVG 20010904//EN"
 "http://www.w3.org/TR/2001/REC-SVG-20010904/DTD/svg10.dtd">
<svg version="1.0" xmlns="http://www.w3.org/2000/svg"
 width="500.000000pt" height="500.000000pt" viewBox="0 0 500.000000 500.000000"
 preserveAspectRatio="xMidYMid meet">

<g transform="translate(0.000000,500.000000) scale(0.100000,-0.100000)"
fill="#000000" stroke="none">
<path d="M2930 3780 c0 -55 1 -100 3 -101 1 -1 63 -7 137 -15 184 -18 419 -43
510 -54 41 -4 145 -15 230 -24 182 -18 209 -24 233 -44 16 -14 17 -81 17
-1147 0 -1066 -1 -1133 -17 -1147 -26 -22 -51 -27 -218 -44 -82 -8 -188 -19
-235 -25 -117 -13 -331 -35 -475 -48 -66 -6 -135 -14 -152 -17 l-33 -5 0 -99
0 -100 750 0 750 0 0 1485 0 1485 -750 0 -750 0 0 -100z"/>
<path d="M520 3345 l0 -475 470 0 470 0 0 475 0 475 -470 0 -470 0 0 -475z
m810 0 l0 -335 -340 0 -340 0 0 335 0 335 340 0 340 0 0 -335z"/>
<path d="M790 3345 l0 -205 200 0 200 0 0 205 0 205 -200 0 -200 0 0 -205z"/>
<path d="M1737 3814 c-4 -4 -7 -36 -7 -71 l0 -63 -65 0 -65 0 0 -65 0 -65 65
0 65 0 0 -70 0 -70 -65 0 -65 0 0 -65 0 -65 65 0 65 0 0 65 0 65 70 0 71 0 -3
68 -3 67 -67 3 -68 3 0 64 0 65 70 0 71 0 -3 68 -3 67 -60 3 c-34 2 -64 0 -68
-4z"/>
<path d="M2000 3615 l0 -65 55 0 55 0 0 65 0 65 -55 0 -55 0 0 -65z"/>
<path d="M2000 3345 l0 -65 -65 0 -64 0 -3 -67 -3 -68 -132 -3 -133 -3 0 -134
0 -135 65 0 65 0 0 70 0 70 70 0 70 0 0 -135 0 -135 -270 0 -270 0 0 -70 0
-70 -70 0 -70 0 0 70 0 70 -335 0 -335 0 0 -70 0 -70 65 0 65 0 0 -65 0 -65
-65 0 -65 0 0 -70 0 -70 65 0 64 0 3 -132 3 -133 133 -3 132 -3 0 71 0 70 -65
0 -65 0 0 200 0 200 200 0 200 0 0 -65 0 -65 -65 0 -65 0 0 -70 0 -70 65 0 65
0 0 70 0 70 70 0 70 0 0 -70 0 -70 65 0 65 0 0 -65 0 -65 -65 0 -65 0 0 -70 0
-70 135 0 135 0 0 -130 0 -130 200 0 200 0 0 -70 0 -70 -200 0 -200 0 0 -335
0 -335 135 0 135 0 0 65 0 65 65 0 65 0 0 -65 0 -65 55 0 55 0 0 65 0 65 -55
0 -55 0 0 70 0 70 55 0 55 0 0 65 0 65 -55 0 -55 0 0 -65 0 -65 -135 0 -136 0
3 133 3 132 133 3 132 3 0 64 0 65 55 0 55 0 0 70 0 70 -55 0 -55 0 0 65 0 65
55 0 55 0 0 135 0 135 -55 0 -55 0 0 65 0 65 55 0 55 0 0 70 0 70 -55 0 -55 0
0 65 0 65 -65 0 -65 0 0 70 0 70 120 0 120 0 0 65 0 65 -55 0 -55 0 0 135 0
135 55 0 55 0 0 135 0 135 -55 0 -55 0 0 -65z m-270 -880 l0 -135 -65 0 -65 0
0 70 0 70 -135 0 -135 0 0 65 0 65 200 0 200 0 0 -135z m270 -65 l0 -70 -65 0
-65 0 0 70 0 70 65 0 65 0 0 -70z m-130 -270 l0 -70 65 0 65 0 0 -65 0 -65
-135 0 -135 0 0 70 0 70 -65 0 -65 0 0 65 0 65 135 0 135 0 0 -70z"/>
<path d="M3758 2484 c-4 -3 -82 -12 -175 -21 -258 -23 -267 -24 -280 -35 -7
-6 -13 -21 -13 -33 0 -40 5 -42 220 -65 47 -5 128 -13 180 -19 124 -14 116
-14 140 11 30 32 28 117 -3 146 -22 21 -57 29 -69 16z"/>
<path d="M1060 2130 l0 -70 65 0 65 0 0 70 0 70 -65 0 -65 0 0 -70z"/>
<path d="M520 1460 l0 -470 470 0 470 0 0 470 0 470 -470 0 -470 0 0 -470z
m808 -3 l2 -337 -337 2 -338 3 -3 325 c-1 179 0 331 3 338 3 10 75 12 337 10
l333 -3 3 -338z"/>
<path d="M790 1460 l0 -200 200 0 200 0 0 200 0 200 -200 0 -200 0 0 -200z"/>
</g>
</svg>
